<?xml version="1.0" encoding="utf-8"?>
<!-- Generator: Adobe Illustrator 25.1.0, SVG Export Plug-In . SVG Version: 6.00 Build 0)  -->
<svg version="1.1" id="Layer_1" xmlns="http://www.w3.org/2000/svg" xmlns:xlink="http://www.w3.org/1999/xlink" x="0px" y="0px"
	 viewBox="0 0 96 10" style="enable-background:new 0 0 96 10;" xml:space="preserve">
<g>
	<g>
		<g>
			<path d="M0.31,8.9V6.33h0.28c0.11,0.61,0.27,1.1,0.49,1.46c0.42,0.7,1.01,1.06,1.76,1.06c0.53,0,0.95-0.17,1.26-0.52
				c0.27-0.3,0.4-0.64,0.4-1.04c0-0.27-0.07-0.53-0.21-0.78C4.12,6.22,3.76,5.93,3.21,5.64C3.1,5.59,2.85,5.47,2.46,5.29
				c-0.92-0.42-1.51-0.85-1.77-1.3C0.48,3.61,0.37,3.23,0.37,2.82c0-0.61,0.21-1.12,0.64-1.5c0.37-0.33,0.83-0.5,1.39-0.5
				c0.54,0,1,0.17,1.4,0.52c0.11,0.09,0.22,0.2,0.35,0.34c0.16-0.21,0.26-0.45,0.29-0.7h0.25v2.1H4.44
				c-0.11-0.5-0.31-0.92-0.59-1.27c-0.37-0.46-0.84-0.7-1.41-0.7c-0.42,0-0.75,0.13-0.98,0.39C1.25,1.74,1.15,2.01,1.15,2.34
				c0,0.35,0.13,0.66,0.38,0.93c0.26,0.27,0.73,0.56,1.42,0.88c0.78,0.36,1.3,0.64,1.56,0.84c0.56,0.44,0.83,1.04,0.83,1.82
				c0,0.72-0.23,1.3-0.7,1.73C4.21,8.93,3.65,9.13,2.98,9.13c-0.86,0-1.56-0.34-2.11-1.01c-0.12,0.2-0.21,0.45-0.28,0.77H0.31V8.9z"
				/>
			<path d="M9.1,1.25V0.98h3.48v0.27h-0.16c-0.43,0-0.69,0.05-0.78,0.14s-0.15,0.22-0.18,0.38c-0.03,0.16-0.04,0.56-0.04,1.21v3.93
				c0,0.68,0.02,1.09,0.05,1.25c0.04,0.22,0.12,0.36,0.23,0.43c0.13,0.09,0.36,0.13,0.67,0.13h0.22v0.27H9.1V8.72h0.22
				c0.43,0,0.7-0.09,0.8-0.28c0.07-0.14,0.11-0.3,0.12-0.48c0.02-0.27,0.02-0.62,0.02-1.05V2.98c0-0.7-0.02-1.13-0.06-1.28
				c-0.05-0.16-0.12-0.28-0.21-0.33C9.88,1.3,9.64,1.26,9.25,1.26L9.1,1.25L9.1,1.25z"/>
			<path d="M21.04,4.55l1.97,2.52c0.59,0.76,1,1.22,1.21,1.39c0.21,0.16,0.47,0.25,0.8,0.25l0.08,0.01v0.27h-3.78V8.72h0.06
				c0.35,0,0.6-0.04,0.73-0.11c0.15-0.08,0.22-0.2,0.22-0.36c0-0.09-0.03-0.2-0.09-0.32S22,7.56,21.7,7.18l-1.37-1.76l-1.2,1.53
				c-0.32,0.44-0.5,0.69-0.54,0.74c-0.09,0.14-0.14,0.28-0.14,0.42c0,0.39,0.28,0.59,0.83,0.6l0.05,0.01v0.27H16.4V8.72l0.08-0.01
				c0.33-0.02,0.61-0.11,0.86-0.26c0.39-0.24,0.77-0.59,1.13-1.07l0.42-0.57l1.28-1.61l-2.01-2.53c-0.15-0.19-0.27-0.34-0.36-0.45
				c-0.27-0.36-0.48-0.59-0.62-0.7c-0.21-0.17-0.45-0.26-0.73-0.26l-0.06-0.01V0.98h3.25v0.27h-0.1c-0.3,0-0.48,0.05-0.56,0.13
				c-0.06,0.07-0.08,0.14-0.08,0.23c0,0.12,0.06,0.27,0.17,0.44c0.04,0.06,0.16,0.22,0.38,0.5l1.4,1.78l1.26-1.67
				c0.11-0.14,0.2-0.25,0.27-0.35c0.21-0.27,0.31-0.47,0.31-0.62c0-0.3-0.3-0.45-0.9-0.45H21.7V0.98h2.85v0.27H24.5
				c-0.02,0-0.03,0-0.04,0c-0.36,0-0.73,0.15-1.11,0.46c-0.27,0.22-0.64,0.64-1.1,1.24L21.04,4.55z"/>
			<path d="M28.69,8.9V6.33h0.28c0.11,0.61,0.27,1.1,0.49,1.46c0.42,0.7,1.01,1.06,1.76,1.06c0.53,0,0.95-0.17,1.26-0.52
				c0.27-0.3,0.4-0.64,0.4-1.04c0-0.27-0.07-0.53-0.21-0.78c-0.17-0.29-0.53-0.58-1.08-0.87c-0.11-0.05-0.36-0.17-0.75-0.35
				c-0.92-0.42-1.51-0.85-1.77-1.3c-0.21-0.38-0.32-0.76-0.32-1.17c0-0.61,0.21-1.12,0.64-1.5c0.37-0.33,0.83-0.5,1.39-0.5
				c0.54,0,1,0.17,1.4,0.52c0.11,0.09,0.22,0.2,0.35,0.34c0.16-0.21,0.26-0.45,0.29-0.7h0.25v2.1h-0.25
				c-0.11-0.5-0.31-0.92-0.59-1.27c-0.37-0.46-0.84-0.7-1.41-0.7c-0.42,0-0.75,0.13-0.98,0.39c-0.21,0.24-0.31,0.51-0.31,0.84
				c0,0.35,0.13,0.66,0.38,0.93c0.26,0.27,0.73,0.56,1.42,0.88c0.78,0.36,1.3,0.64,1.56,0.84c0.56,0.44,0.83,1.04,0.83,1.82
				c0,0.72-0.23,1.3-0.7,1.73c-0.43,0.39-0.99,0.59-1.66,0.59c-0.86,0-1.56-0.34-2.11-1.01c-0.12,0.2-0.21,0.45-0.28,0.77h-0.28V8.9
				z"/>
			<path d="M37.65,2.91h-0.26l0.04-1.92h7.39l0.04,1.92h-0.24c-0.13-0.76-0.33-1.25-0.6-1.45c-0.14-0.1-0.32-0.16-0.53-0.19
				c-0.07-0.01-0.27-0.01-0.58-0.01h-1.2v5.66c0,0.68,0.02,1.1,0.05,1.25c0.04,0.21,0.12,0.35,0.23,0.43
				c0.13,0.09,0.36,0.13,0.67,0.13h0.36V9h-3.8V8.73h0.38c0.44,0,0.71-0.09,0.81-0.29c0.07-0.13,0.11-0.29,0.12-0.48
				c0.02-0.27,0.02-0.62,0.02-1.05V1.25h-1.1c-0.43,0-0.71,0.01-0.83,0.04c-0.21,0.04-0.36,0.13-0.47,0.26
				C37.91,1.82,37.75,2.27,37.65,2.91z"/>
			<path d="M51.98,6.04h-2.89l-0.2,0.5c-0.2,0.52-0.33,0.85-0.37,1c-0.04,0.15-0.07,0.31-0.07,0.48c0,0.2,0.08,0.38,0.23,0.52
				c0.14,0.13,0.31,0.19,0.5,0.19h0.1V9h-2.27V8.73l0.11-0.02c0.38-0.07,0.68-0.32,0.91-0.77c0.01-0.02,0.21-0.52,0.6-1.5l2.21-5.56
				h0.22l2.54,6.37c0.27,0.66,0.46,1.06,0.56,1.19c0.15,0.18,0.36,0.27,0.64,0.3l0.06,0.01v0.27h-2.99V8.75h0.09
				c0.4,0,0.65-0.05,0.74-0.16c0.07-0.08,0.1-0.16,0.1-0.24c0-0.1-0.09-0.36-0.26-0.8L51.98,6.04z M51.88,5.77l-1.35-3.41
				l-1.34,3.41H51.88z"/>
			<path d="M57.53,2.91h-0.26l0.04-1.92h7.39l0.04,1.92H64.5c-0.13-0.76-0.33-1.25-0.61-1.45c-0.14-0.1-0.32-0.16-0.53-0.19
				c-0.07-0.01-0.27-0.01-0.58-0.01h-1.2v5.66c0,0.68,0.02,1.1,0.05,1.25c0.04,0.21,0.12,0.35,0.23,0.43
				c0.13,0.09,0.36,0.13,0.67,0.13h0.36V9h-3.8V8.73h0.38c0.44,0,0.71-0.09,0.81-0.29c0.07-0.13,0.11-0.29,0.12-0.48
				c0.02-0.27,0.02-0.62,0.02-1.05V1.25h-1.1c-0.43,0-0.71,0.01-0.83,0.04c-0.21,0.04-0.36,0.13-0.47,0.26
				C57.79,1.82,57.63,2.27,57.53,2.91z"/>
			<path d="M68.58,1.25V0.98h3.48v0.27H71.9c-0.43,0-0.69,0.05-0.78,0.14s-0.15,0.22-0.18,0.38S70.9,2.33,70.9,2.98v3.93
				c0,0.68,0.02,1.09,0.05,1.25c0.04,0.22,0.12,0.36,0.23,0.43c0.13,0.09,0.36,0.13,0.67,0.13h0.22v0.27h-3.48V8.72h0.22
				c0.43,0,0.7-0.09,0.8-0.28c0.07-0.14,0.11-0.3,0.12-0.48c0.02-0.27,0.02-0.62,0.02-1.05V2.98c0-0.7-0.02-1.13-0.06-1.28
				c-0.05-0.16-0.12-0.28-0.21-0.33c-0.11-0.07-0.35-0.11-0.74-0.11L68.58,1.25L68.58,1.25z"/>
			<path d="M79.94,0.83c1.31,0,2.37,0.44,3.17,1.31c0.66,0.72,0.99,1.67,0.99,2.83c0,0.84-0.19,1.61-0.58,2.29
				c-0.31,0.54-0.74,0.97-1.29,1.29c-0.68,0.39-1.44,0.59-2.26,0.59c-1.23,0-2.23-0.38-3-1.14c-0.78-0.77-1.17-1.81-1.17-3.12
				c0-0.78,0.18-1.49,0.54-2.14c0.33-0.58,0.78-1.03,1.37-1.36C78.41,1.02,79.14,0.83,79.94,0.83z M79.93,1.12
				c-0.69,0-1.27,0.21-1.74,0.63c-0.37,0.33-0.64,0.82-0.81,1.48c-0.14,0.54-0.21,1.11-0.21,1.71c0,0.95,0.14,1.76,0.41,2.41
				c0.18,0.44,0.47,0.8,0.85,1.06c0.42,0.28,0.94,0.43,1.57,0.43c0.6,0,1.11-0.16,1.53-0.48c0.25-0.19,0.44-0.4,0.59-0.62
				c0.42-0.63,0.63-1.53,0.63-2.72c0-1.12-0.19-2.01-0.56-2.67c-0.21-0.38-0.51-0.68-0.89-0.89C80.87,1.24,80.42,1.12,79.93,1.12z"
				/>
			<path d="M94.25,9.18l-5.38-7.51v5.56c0.01,0.52,0.04,0.83,0.07,0.92c0.15,0.37,0.54,0.56,1.19,0.57l0.08,0.01V9h-2.84V8.73
				l0.13-0.01c0.38-0.03,0.67-0.14,0.87-0.32c0.11-0.1,0.17-0.22,0.19-0.38c0.02-0.1,0.02-0.36,0.02-0.78V2.98
				c0-0.77-0.06-1.26-0.17-1.46c-0.05-0.09-0.1-0.15-0.17-0.18c-0.14-0.06-0.38-0.09-0.72-0.09h-0.06V0.98h2.25l4.5,6.27V2.46
				c0-0.48-0.08-0.78-0.25-0.91c-0.23-0.19-0.53-0.28-0.9-0.29h-0.15V0.98h2.77v0.27l-0.1,0.01c-0.37,0.03-0.65,0.14-0.84,0.32
				c-0.14,0.13-0.22,0.31-0.24,0.55c0,0.05-0.01,0.2-0.01,0.42v6.63C94.49,9.18,94.25,9.18,94.25,9.18z"/>
		</g>
	</g>
</g>
</svg>
